<svg width="178" height="36" viewBox="0 0 178 36" fill="none" xmlns="http://www.w3.org/2000/svg">
<line x1="112" y1="17.5" x2="178" y2="17.5" stroke="#0063A8"/>
<line y1="17.5" x2="66" y2="17.5" stroke="#0063A8"/>
<circle cx="89" cy="18" r="16" stroke="#0063A8" stroke-width="2.76396" stroke-dasharray="0.98 8.39"/>
<mask id="path-4-inside-1_4492_267" fill="white">
<path fill-rule="evenodd" clip-rule="evenodd" d="M88.0139 6.81253L81.1081 19.9673C80.7586 20.6332 81.2415 21.4321 81.9935 21.4321H85.6764L85.4965 27.9453C85.4379 30.0635 88.2816 30.8063 89.2665 28.9302L96.1723 15.7754C96.5219 15.1095 96.0389 14.3106 95.2869 14.3106H91.604L91.784 7.79739C91.8425 5.67922 88.9988 4.93637 88.0139 6.81253Z"/>
</mask>
<path fill-rule="evenodd" clip-rule="evenodd" d="M88.0139 6.81253L81.1081 19.9673C80.7586 20.6332 81.2415 21.4321 81.9935 21.4321H85.6764L85.4965 27.9453C85.4379 30.0635 88.2816 30.8063 89.2665 28.9302L96.1723 15.7754C96.5219 15.1095 96.0389 14.3106 95.2869 14.3106H91.604L91.784 7.79739C91.8425 5.67922 88.9988 4.93637 88.0139 6.81253Z" fill="#FFDF4E"/>
<path d="M81.1081 19.9673L82.337 20.6124L81.1081 19.9673ZM88.0139 6.81253L89.2427 7.45762V7.45762L88.0139 6.81253ZM85.6764 21.4321L87.0638 21.4705L87.1032 20.0443H85.6764V21.4321ZM85.4965 27.9453L84.1091 27.907L85.4965 27.9453ZM89.2665 28.9302L88.0377 28.2851L89.2665 28.9302ZM96.1723 15.7754L97.4011 16.4204L96.1723 15.7754ZM91.604 14.3106L90.2167 14.2722L90.1773 15.6984H91.604V14.3106ZM91.784 7.79739L93.1713 7.83572L91.784 7.79739ZM82.337 20.6124L89.2427 7.45762L86.7851 6.16745L79.8793 19.3223L82.337 20.6124ZM81.9935 20.0443C82.2852 20.0443 82.4725 20.3542 82.337 20.6124L79.8793 19.3223C79.0446 20.9123 80.1978 22.82 81.9935 22.82V20.0443ZM85.6764 20.0443H81.9935V22.82H85.6764V20.0443ZM86.8838 27.9836L87.0638 21.4705L84.2891 21.3938L84.1091 27.907L86.8838 27.9836ZM88.0377 28.2851C87.7363 28.8593 86.8659 28.632 86.8838 27.9836L84.1091 27.907C84.01 31.495 88.827 32.7534 90.4954 29.5753L88.0377 28.2851ZM94.9435 15.1303L88.0377 28.2851L90.4954 29.5753L97.4011 16.4204L94.9435 15.1303ZM95.2869 15.6984C94.9952 15.6984 94.8079 15.3885 94.9435 15.1303L97.4011 16.4204C98.2358 14.8304 97.0827 12.9227 95.2869 12.9227V15.6984ZM91.604 15.6984H95.2869V12.9227H91.604V15.6984ZM90.3966 7.75906L90.2167 14.2722L92.9913 14.3489L93.1713 7.83572L90.3966 7.75906ZM89.2427 7.45762C89.5442 6.88339 90.4146 7.11074 90.3966 7.75906L93.1713 7.83572C93.2704 4.24771 88.4535 2.98934 86.7851 6.16745L89.2427 7.45762Z" fill="#0063A8" mask="url(#path-4-inside-1_4492_267)"/>
</svg>
