<svg width="100" height="50" viewBox="0 0 100 50" fill="none" xmlns="http://www.w3.org/2000/svg">
<path d="M52.0269 0H12.2422C5.33723 0 -0.257812 5.59505 -0.257812 12.5V37.5C-0.257812 44.405 5.33723 50 12.2422 50H87.2422C94.1471 50 99.7422 44.405 99.7422 37.5V0H52.0269ZM49.7422 48.5378H12.2422C6.15974 48.5378 1.20441 43.5825 1.20441 37.5V12.5C1.20441 6.41755 6.15974 1.46223 12.2422 1.46223H49.7422V48.5378ZM86.7751 37.0329C86.0541 37.7539 85.0184 38.0991 83.7897 38.0991C81.3628 38.0991 78.1236 36.7689 74.7422 34.3928C71.3608 36.7689 68.1216 38.0991 65.6947 38.0991C64.4558 38.0991 63.4302 37.7539 62.7093 37.0329C60.5667 34.8903 61.7548 30.1076 65.3393 25C61.7548 19.8924 60.5667 15.1097 62.7093 12.9671C64.8519 10.8245 69.6346 12.0126 74.7422 15.5971C79.8498 12.0126 84.6325 10.8245 86.7751 12.9671C88.9177 15.1097 87.7296 19.8924 84.1451 25C87.7296 30.1076 88.9177 34.8903 86.7751 37.0329Z" fill="white"/>
</svg>
